<svg width="19" height="19" viewBox="0 0 19 19" fill="none" xmlns="http://www.w3.org/2000/svg">
<path d="M12.5852 11.1389L10.1132 9.28494V5.50894C10.1065 5.3314 10.0312 5.16339 9.90315 5.04018C9.77515 4.91697 9.60439 4.84814 9.42673 4.84814C9.24906 4.84814 9.0783 4.91697 8.9503 5.04018C8.8223 5.16339 8.74701 5.3314 8.74023 5.50894V9.62894C8.7402 9.73553 8.76503 9.84067 8.81277 9.93598C8.86052 10.0313 8.92983 10.1141 9.01523 10.1779L11.7612 12.2379C11.9071 12.3472 12.0904 12.3941 12.2708 12.3682C12.4512 12.3423 12.614 12.2458 12.7232 12.0999C12.8325 11.9541 12.8793 11.7708 12.8535 11.5904C12.8276 11.41 12.7311 11.2472 12.5852 11.1379V11.1389Z" fill="black" stroke="black" stroke-width="0.4"/>
<path d="M9.5 1C7.81886 1 6.17547 1.49852 4.77766 2.43251C3.37984 3.3665 2.29037 4.69402 1.64703 6.24719C1.00368 7.80036 0.835355 9.50943 1.16333 11.1583C1.4913 12.8071 2.30085 14.3217 3.4896 15.5104C4.67834 16.6992 6.1929 17.5087 7.84174 17.8367C9.49057 18.1646 11.1996 17.9963 12.7528 17.353C14.306 16.7096 15.6335 15.6202 16.5675 14.2223C17.5015 12.8245 18 11.1811 18 9.5C17.9976 7.24639 17.1013 5.08577 15.5078 3.49222C13.9142 1.89868 11.7536 1.00238 9.5 1V1ZM9.5 16.683C8.07934 16.683 6.69058 16.2617 5.50934 15.4724C4.3281 14.6832 3.40744 13.5613 2.86378 12.2488C2.32011 10.9363 2.17787 9.49203 2.45502 8.09867C2.73218 6.7053 3.4163 5.42541 4.42086 4.42085C5.42542 3.41629 6.7053 2.73218 8.09867 2.45502C9.49204 2.17786 10.9363 2.32011 12.2488 2.86377C13.5613 3.40744 14.6832 4.3281 15.4725 5.50934C16.2617 6.69058 16.683 8.07934 16.683 9.5C16.6806 11.4043 15.9231 13.23 14.5765 14.5765C13.23 15.9231 11.4043 16.6806 9.5 16.683Z" fill="black" stroke="black" stroke-width="0.4"/>
</svg>
