<svg width="20" height="20" viewBox="0 0 20 20" fill="none" xmlns="http://www.w3.org/2000/svg">
<g clip-path="url(#clip0_1_3204)">
<path d="M13.2665 11.7354L10.6491 9.77237V5.77425C10.6419 5.58627 10.5622 5.40838 10.4266 5.27792C10.2911 5.14746 10.1103 5.07458 9.92219 5.07458C9.73407 5.07458 9.55327 5.14746 9.41774 5.27792C9.2822 5.40838 9.20249 5.58627 9.19531 5.77425V10.1366C9.19527 10.2495 9.22157 10.3608 9.27212 10.4617C9.32267 10.5626 9.39607 10.6503 9.48648 10.7179L12.394 12.8991C12.5485 13.0148 12.7425 13.0644 12.9336 13.037C13.1246 13.0096 13.2969 12.9074 13.4126 12.753C13.5283 12.5985 13.5779 12.4044 13.5505 12.2134C13.5231 12.0224 13.4209 11.8501 13.2665 11.7344V11.7354Z" fill="#0085FF" stroke="#0085FF" stroke-width="0.333333"/>
<path d="M10 1C8.21997 1 6.47991 1.52784 4.99987 2.51677C3.51983 3.50571 2.36628 4.91131 1.68509 6.55585C1.0039 8.20038 0.82567 10.01 1.17294 11.7558C1.5202 13.5016 2.37737 15.1053 3.63604 16.364C4.89471 17.6226 6.49836 18.4798 8.24419 18.8271C9.99002 19.1743 11.7996 18.9961 13.4442 18.3149C15.0887 17.6337 16.4943 16.4802 17.4832 15.0001C18.4722 13.5201 19 11.78 19 10C18.9975 7.61383 18.0485 5.32611 16.3612 3.63882C14.6739 1.95154 12.3862 1.00252 10 1V1ZM10 17.6055C8.49577 17.6055 7.02532 17.1595 5.7746 16.3238C4.52387 15.4881 3.54906 14.3002 2.97341 12.9105C2.39777 11.5208 2.24715 9.99156 2.54061 8.51623C2.83407 7.04091 3.55843 5.68573 4.62208 4.62208C5.68573 3.55843 7.04091 2.83407 8.51624 2.54061C9.99157 2.24715 11.5208 2.39776 12.9105 2.97341C14.3002 3.54905 15.4881 4.52387 16.3238 5.77459C17.1595 7.02532 17.6055 8.49577 17.6055 10C17.603 12.0163 16.8009 13.9494 15.3751 15.3751C13.9494 16.8009 12.0163 17.603 10 17.6055Z" fill="#0085FF" stroke="#0085FF" stroke-width="0.333333"/>
</g>
<defs>
<clipPath id="clip0_1_3204">
<rect width="20" height="20" fill="white"/>
</clipPath>
</defs>
</svg>
